# xmcd
#
# Track frame offsets: 
#        182
#        17217
#        32710
#        53547
#        71715
#        87557
#        105137
#        128302
#        145147
#        160642
#        184155
#
# Disc length: 2605 seconds
#
# Revision: 3
# Processed by: cddbd v1.5.1PL0 Copyright (c) Steve Scherf et al.
# Submitted via: ExactAudioCopy v0.95b1
#
DISCID=830a2b0b
DTITLE=David Gates - Love Is Always Seventeen
DYEAR=1994
DGENRE=Country
TTITLE0=Avenue Of Love
TTITLE1=Love Is Always Seventeen
TTITLE2=Ordinary Man
TTITLE3=I Will Wait For You
TTITLE4=Save This Dance For Me
TTITLE5=No Secrets In A Small Town
TTITLE6=Heart, Its All Over
TTITLE7=I Don't Want To Share Your Love
TTITLE8=I Can't Find The Words To Say Goodbye
TTITLE9=Dear World
TTITLE10=Thankin' You Sweet Baby James
EXTD=
EXTT0=
EXTT1=
EXTT2=
EXTT3=
EXTT4=
EXTT5=
EXTT6=
EXTT7=
EXTT8=
EXTT9=
EXTT10=
PLAYORDER=
